<?xml version="1.0" encoding="utf-8"?>
<!-- Generator: Adobe Illustrator 16.0.4, SVG Export Plug-In . SVG Version: 6.00 Build 0)  -->
<!DOCTYPE svg PUBLIC "-//W3C//DTD SVG 1.1//EN" "http://www.w3.org/Graphics/SVG/1.1/DTD/svg11.dtd">
<svg version="1.1" id="Layer_1" xmlns="http://www.w3.org/2000/svg" xmlns:xlink="http://www.w3.org/1999/xlink" x="0px" y="0px"
	 width="400px" height="70.561px" viewBox="0 0 400 70.561" enable-background="new 0 0 400 70.561" xml:space="preserve">
<path fill="#F78F1E" d="M296.248,0H193.883l-12.338,11.442V60.58c0,2.195,0.928,9.98,11.836,9.98h71.477
	c3.244,0,16.481-0.18,16.481-13.15V36.765c0-4.465-2.911-12.91-12.356-12.91h-12.861L233.5,41.248H255
	c4.66,0,5.744,1.426,5.744,5.309v8.592h-58.025V15.414h76.535L296.248,0z M297.527,15.901L317.412,0v52.671h82.641L380.09,70.56
	h-65.839c-8.75,0-16.724-4.681-16.724-17.889V15.901z M140.921,0H171.2l-44.755,36.277l50.922,33.774h-34.389L108.532,47.71
	c0,0-12.868-9.459,2.035-23.362L140.921,0z M96.691,0h32.418L32.957,70.56H0L96.691,0z"/>
</svg>
