<svg xmlns="http://www.w3.org/2000/svg" width="250" height="250" viewBox="0 0 250 250"><polygon points="150.21 44.39 81.92 148.4 129.88 148.4 112.56 150.85 88.75 235.95 157.04 131.94 109.07 131.94 126.39 129.49 150.21 44.39"/><path d="M125.94,57.88c-1.42-.08-2.85-.13-4.3-.13-2.28,0-4.53.1-6.77.28V69.28q3.34-.32,6.77-.32,2.92,0,5.79.23l33.48-50Z"/><path d="M86.43,201.15A70.86,70.86,0,0,1,53.3,121.27V94.44A82,82,0,0,0,89.35,215.13l3.05-10.91-.07,0,11.06-40.56Z"/><polygon points="73.43 60.93 57.31 71.8 57.31 119.61 73.43 119.61 73.43 60.93"/><polygon points="91.96 51.15 76.21 34.85 76.21 116.89 91.96 116.89 91.96 51.15"/><polygon points="94.87 30.32 94.87 114.03 110.63 95.32 110.63 14.02 94.87 30.32"/><path d="M114.4,205a68.58,68.58,0,0,0,7.2.39A65.93,65.93,0,0,0,151.49,80.7l5.91-22.07a88.41,88.41,0,0,1,19.89,12.19,9.18,9.18,0,0,0,13,13,88.42,88.42,0,0,1,13.93,24.08,9.18,9.18,0,0,0,4.73,17.71,89.24,89.24,0,0,1,0,27.81,9.18,9.18,0,0,0-4.74,17.71,88.23,88.23,0,0,1-13.92,24.07,9.18,9.18,0,0,0-13,13,88.42,88.42,0,0,1-24.08,13.93,9.17,9.17,0,0,0-17.7,4.73,89.21,89.21,0,0,1-33.1-1l12-20.77Z" fill-rule="evenodd"/></svg>